<svg width="30" height="25" viewBox="0 0 30 25" fill="none" xmlns="http://www.w3.org/2000/svg">
<rect width="30" height="25" rx="3" fill="#5157F8"/>
<path d="M12.2292 6.26H12.0833C12.1635 6.26 12.2292 6.197 12.2292 6.12V6.26H17.7708V6.12C17.7708 6.197 17.8365 6.26 17.9167 6.26H17.7708V7.52H19.0833V6.12C19.0833 5.50225 18.5602 5 17.9167 5H12.0833C11.4398 5 10.9167 5.50225 10.9167 6.12V7.52H12.2292V6.26ZM21.4167 7.52H8.58333C8.26068 7.52 8 7.77025 8 8.08V8.64C8 8.717 8.06562 8.78 8.14583 8.78H9.24687L9.69714 17.9325C9.7263 18.5293 10.2404 19 10.862 19H19.138C19.7615 19 20.2737 18.531 20.3029 17.9325L20.7531 8.78H21.8542C21.9344 8.78 22 8.717 22 8.64V8.08C22 7.77025 21.7393 7.52 21.4167 7.52ZM18.9977 17.74H11.0023L10.5612 8.78H19.4388L18.9977 17.74Z" fill="white"/>
</svg>
