<svg width="30" height="25" viewBox="0 0 30 25" fill="none" xmlns="http://www.w3.org/2000/svg">
<rect width="30" height="25" rx="3" fill="#5157F8"/>
<path d="M23 14.9724L21.1147 16.8578L18.2951 14.0382L17.0382 15.2951L19.8578 18.1147L17.9724 20H23V14.9724ZM7 9.02756L8.88533 7.14222L11.7049 9.96178L12.9618 8.70489L10.1422 5.88533L12.0276 4H7V9.02756ZM23 4H17.9724L19.8578 5.88533L17.0382 8.70489L18.2951 9.96178L21.1147 7.14222L23 9.02756V4ZM7 20H12.0276L10.1422 18.1147L12.9618 15.2951L11.7049 14.0382L8.88533 16.8578L7 14.9724V20Z" fill="white"/>
</svg>
